<?xml version="1.0" encoding="UTF-8"?>
<svg height="128px" viewBox="0 0 128 128" width="128px" xmlns="http://www.w3.org/2000/svg" xmlns:xlink="http://www.w3.org/1999/xlink">
    <filter id="a" height="100%" width="100%" x="0%" y="0%">
        <feColorMatrix color-interpolation-filters="sRGB" values="0 0 0 0 1 0 0 0 0 1 0 0 0 0 1 0 0 0 1 0"/>
    </filter>
    <linearGradient id="b" gradientUnits="userSpaceOnUse">
        <stop offset="0" stop-color="#77767b"/>
        <stop offset="0.0357143" stop-color="#c0bfbc"/>
        <stop offset="0.0713653" stop-color="#9a9996"/>
        <stop offset="0.928571" stop-color="#9a9996"/>
        <stop offset="0.964286" stop-color="#c0bfbc"/>
        <stop offset="1" stop-color="#77767b"/>
    </linearGradient>
    <linearGradient id="c" gradientTransform="matrix(0.142857 0 0 0.0592105 19.343452 134.608858)" x1="88.595886" x2="536.595886" xlink:href="#b" y1="-449.394012" y2="-449.394012"/>
    <linearGradient id="d" gradientTransform="matrix(0.142857 0 0 0.0592105 19.343482 122.608856)" x1="88.595886" x2="536.595886" xlink:href="#b" y1="-449.394012" y2="-449.394012"/>
    <linearGradient id="e" gradientTransform="matrix(0.142857 0 0 0.0592105 19.343452 110.608856)" x1="88.595886" x2="536.595886" xlink:href="#b" y1="-449.394012" y2="-449.394012"/>
    <linearGradient id="f" gradientTransform="matrix(0.142857 0 0 0.0592105 19.343482 98.608856)" x1="88.595886" x2="536.595886" xlink:href="#b" y1="-449.394012" y2="-449.394012"/>
    <clipPath id="g">
        <rect height="128" width="128"/>
    </clipPath>
    <clipPath id="h">
        <rect height="128" width="128"/>
    </clipPath>
    <mask id="i">
        <g filter="url(#a)">
            <g clip-path="url(#h)" filter="url(#a)">
                <g clip-path="url(#g)">
                    <path d="m 64 10 c 1.105469 0 2 0.894531 2 2 v 102 c 0 1.105469 -0.894531 2 -2 2 s -2 -0.894531 -2 -2 v -102 c 0 -1.105469 0.894531 -2 2 -2 z m 0 0" fill="#865e3c"/>
                    <path d="m 36.570312 90 h 54.859376 c 2.523437 0 4.570312 0.847656 4.570312 1.894531 v 14.210938 c 0 1.046875 -2.046875 1.894531 -4.570312 1.894531 h -54.859376 c -2.523437 0 -4.570312 -0.847656 -4.570312 -1.894531 v -14.210938 c 0 -1.046875 2.046875 -1.894531 4.570312 -1.894531 z m 0 0" fill="url(#c)"/>
                    <path d="m 36.570312 82 h 54.859376 c 2.523437 0 4.570312 0.765625 4.570312 1.714844 v 14.570312 c 0 0.949219 -2.046875 1.714844 -4.570312 1.714844 h -54.859376 c -2.523437 0 -4.570312 -0.765625 -4.570312 -1.714844 v -14.570312 c 0 -0.949219 2.046875 -1.714844 4.570312 -1.714844 z m 0 0" fill="#77767b"/>
                    <path d="m 48 104 c 0 1.105469 -0.894531 2 -2 2 s -2 -0.894531 -2 -2 s 0.894531 -2 2 -2 s 2 0.894531 2 2 z m 0 0" fill="#57e389"/>
                    <path d="m 90 104 c 0 0.550781 -0.449219 1 -1 1 s -1 -0.449219 -1 -1 s 0.449219 -1 1 -1 s 1 0.449219 1 1 z m 0 0" fill="#3d3846"/>
                    <path d="m 40 104 c 0 0.550781 -0.449219 1 -1 1 s -1 -0.449219 -1 -1 s 0.449219 -1 1 -1 s 1 0.449219 1 1 z m 0 0" fill="#3d3846"/>
                    <path d="m 36.570312 78 h 54.859376 c 2.523437 0 4.570312 0.847656 4.570312 1.894531 v 14.210938 c 0 1.046875 -2.046875 1.894531 -4.570312 1.894531 h -54.859376 c -2.523437 0 -4.570312 -0.847656 -4.570312 -1.894531 v -14.210938 c 0 -1.046875 2.046875 -1.894531 4.570312 -1.894531 z m 0 0" fill="url(#d)"/>
                    <path d="m 36.570312 70 h 54.859376 c 2.523437 0 4.570312 0.765625 4.570312 1.714844 v 14.570312 c 0 0.949219 -2.046875 1.714844 -4.570312 1.714844 h -54.859376 c -2.523437 0 -4.570312 -0.765625 -4.570312 -1.714844 v -14.570312 c 0 -0.949219 2.046875 -1.714844 4.570312 -1.714844 z m 0 0" fill="#77767b"/>
                    <path d="m 48 92 c 0 1.105469 -0.894531 2 -2 2 s -2 -0.894531 -2 -2 s 0.894531 -2 2 -2 s 2 0.894531 2 2 z m 0 0" fill="#57e389"/>
                    <path d="m 90 92 c 0 0.550781 -0.449219 1 -1 1 s -1 -0.449219 -1 -1 s 0.449219 -1 1 -1 s 1 0.449219 1 1 z m 0 0" fill="#3d3846"/>
                    <path d="m 40 92 c 0 0.550781 -0.449219 1 -1 1 s -1 -0.449219 -1 -1 s 0.449219 -1 1 -1 s 1 0.449219 1 1 z m 0 0" fill="#3d3846"/>
                    <path d="m 36.570312 66 h 54.859376 c 2.523437 0 4.570312 0.847656 4.570312 1.894531 v 14.210938 c 0 1.046875 -2.046875 1.894531 -4.570312 1.894531 h -54.859376 c -2.523437 0 -4.570312 -0.847656 -4.570312 -1.894531 v -14.210938 c 0 -1.046875 2.046875 -1.894531 4.570312 -1.894531 z m 0 0" fill="url(#e)"/>
                    <path d="m 36.570312 58 h 54.859376 c 2.523437 0 4.570312 0.765625 4.570312 1.714844 v 14.570312 c 0 0.949219 -2.046875 1.714844 -4.570312 1.714844 h -54.859376 c -2.523437 0 -4.570312 -0.765625 -4.570312 -1.714844 v -14.570312 c 0 -0.949219 2.046875 -1.714844 4.570312 -1.714844 z m 0 0" fill="#77767b"/>
                    <path d="m 48 80 c 0 1.105469 -0.894531 2 -2 2 s -2 -0.894531 -2 -2 s 0.894531 -2 2 -2 s 2 0.894531 2 2 z m 0 0" fill="#57e389"/>
                    <path d="m 90 80 c 0 0.550781 -0.449219 1 -1 1 s -1 -0.449219 -1 -1 s 0.449219 -1 1 -1 s 1 0.449219 1 1 z m 0 0" fill="#3d3846"/>
                    <path d="m 40 80 c 0 0.550781 -0.449219 1 -1 1 s -1 -0.449219 -1 -1 s 0.449219 -1 1 -1 s 1 0.449219 1 1 z m 0 0" fill="#3d3846"/>
                    <path d="m 36.570312 54 h 54.859376 c 2.523437 0 4.570312 0.847656 4.570312 1.894531 v 14.210938 c 0 1.046875 -2.046875 1.894531 -4.570312 1.894531 h -54.859376 c -2.523437 0 -4.570312 -0.847656 -4.570312 -1.894531 v -14.210938 c 0 -1.046875 2.046875 -1.894531 4.570312 -1.894531 z m 0 0" fill="url(#f)"/>
                    <path d="m 36.570312 46 h 54.859376 c 2.523437 0 4.570312 0.765625 4.570312 1.714844 v 14.570312 c 0 0.949219 -2.046875 1.714844 -4.570312 1.714844 h -54.859376 c -2.523437 0 -4.570312 -0.765625 -4.570312 -1.714844 v -14.570312 c 0 -0.949219 2.046875 -1.714844 4.570312 -1.714844 z m 0 0" fill="#77767b"/>
                    <path d="m 48 68 c 0 1.105469 -0.894531 2 -2 2 s -2 -0.894531 -2 -2 s 0.894531 -2 2 -2 s 2 0.894531 2 2 z m 0 0" fill="#57e389"/>
                    <path d="m 90 68 c 0 0.550781 -0.449219 1 -1 1 s -1 -0.449219 -1 -1 s 0.449219 -1 1 -1 s 1 0.449219 1 1 z m 0 0" fill="#3d3846"/>
                    <path d="m 40 68 c 0 0.550781 -0.449219 1 -1 1 s -1 -0.449219 -1 -1 s 0.449219 -1 1 -1 s 1 0.449219 1 1 z m 0 0" fill="#3d3846"/>
                    <path d="m 64 181 c -26.691406 0 -49.527344 18.816406 -54.164062 44.625 l 1.148437 0.199219 c 3.167969 -4.898438 8.410156 -7.824219 14.015625 -7.824219 c 7.597656 0.003906 14.269531 5.339844 16.347656 13.078125 l 2.304688 0.398437 c 3.367187 -4.515624 11.410156 -7.46875 20.347656 -7.476562 c 8.945312 0 17 2.953125 20.375 7.472656 l 2.300781 -0.398437 c 2.078125 -7.726563 8.738281 -13.0625 16.324219 -13.074219 c 5.605469 0 10.847656 2.925781 14.019531 7.824219 l 1.144531 -0.199219 c -4.636718 -25.808594 -27.472656 -44.625 -54.164062 -44.625 z m 0 0" fill="none" stroke="#a51d2d" stroke-linecap="round" stroke-linejoin="round" stroke-width="2" transform="matrix(1 0 0 1 0 -172)"/>
                    <path d="m 64 9 c -26.691406 0 -49.527344 18.816406 -54.164062 44.625 l 1.148437 0.199219 c 3.167969 -4.898438 8.410156 -7.824219 14.015625 -7.824219 c 7.597656 0.003906 14.269531 5.339844 16.347656 13.078125 l 2.304688 0.398437 c 3.367187 -4.515624 11.410156 -7.46875 20.347656 -7.476562 c 8.945312 0 17 2.953125 20.375 7.472656 l 2.300781 -0.398437 c 2.078125 -7.726563 8.738281 -13.0625 16.324219 -13.074219 c 5.605469 0 10.847656 2.925781 14.019531 7.824219 l 1.144531 -0.199219 c -4.636718 -25.808594 -27.472656 -44.625 -54.164062 -44.625 z m 0 0" fill="#e01b24"/>
                    <path d="m 64 181 c -5.332031 5 -10.667969 10 -14.167969 18.332031 c -3.5 8.335938 -5.164062 20 -6.832031 31.667969" fill="none" stroke="#a51d2d" stroke-linecap="round" stroke-linejoin="round" transform="matrix(1 0 0 1 0 -172)"/>
                    <path d="m 64 181 c 5.410156 5.019531 10.816406 10.035156 14.3125 18.339844 c 3.496094 8.304687 5.09375 19.980468 6.6875 31.660156" fill="none" stroke="#a51d2d" stroke-linecap="round" stroke-linejoin="round" transform="matrix(1 0 0 1 0 -172)"/>
                </g>
            </g>
        </g>
    </mask>
    <mask id="j">
        <g filter="url(#a)">
            <rect fill-opacity="0.8" height="184.32" width="184.32" x="-28.16" y="-28.16"/>
        </g>
    </mask>
    <linearGradient id="k" gradientTransform="matrix(0 0.37 -0.98462 0 295.38501 -30.360001)" gradientUnits="userSpaceOnUse" x1="300" x2="428" y1="235" y2="235">
        <stop offset="0" stop-color="#f9f06b"/>
        <stop offset="1" stop-color="#f5c211"/>
    </linearGradient>
    <clipPath id="l">
        <rect height="128" width="128"/>
    </clipPath>
    <clipPath id="m">
        <rect height="128" width="128"/>
    </clipPath>
    <path d="m 64 10 c 1.105469 0 2 0.894531 2 2 v 102 c 0 1.105469 -0.894531 2 -2 2 s -2 -0.894531 -2 -2 v -102 c 0 -1.105469 0.894531 -2 2 -2 z m 0 0" fill="#865e3c"/>
    <path d="m 36.570312 90 h 54.859376 c 2.523437 0 4.570312 0.847656 4.570312 1.894531 v 14.210938 c 0 1.046875 -2.046875 1.894531 -4.570312 1.894531 h -54.859376 c -2.523437 0 -4.570312 -0.847656 -4.570312 -1.894531 v -14.210938 c 0 -1.046875 2.046875 -1.894531 4.570312 -1.894531 z m 0 0" fill="url(#c)"/>
    <path d="m 36.570312 82 h 54.859376 c 2.523437 0 4.570312 0.765625 4.570312 1.714844 v 14.570312 c 0 0.949219 -2.046875 1.714844 -4.570312 1.714844 h -54.859376 c -2.523437 0 -4.570312 -0.765625 -4.570312 -1.714844 v -14.570312 c 0 -0.949219 2.046875 -1.714844 4.570312 -1.714844 z m 0 0" fill="#77767b"/>
    <path d="m 48 104 c 0 1.105469 -0.894531 2 -2 2 s -2 -0.894531 -2 -2 s 0.894531 -2 2 -2 s 2 0.894531 2 2 z m 0 0" fill="#57e389"/>
    <path d="m 90 104 c 0 0.550781 -0.449219 1 -1 1 s -1 -0.449219 -1 -1 s 0.449219 -1 1 -1 s 1 0.449219 1 1 z m 0 0" fill="#3d3846"/>
    <path d="m 40 104 c 0 0.550781 -0.449219 1 -1 1 s -1 -0.449219 -1 -1 s 0.449219 -1 1 -1 s 1 0.449219 1 1 z m 0 0" fill="#3d3846"/>
    <path d="m 36.570312 78 h 54.859376 c 2.523437 0 4.570312 0.847656 4.570312 1.894531 v 14.210938 c 0 1.046875 -2.046875 1.894531 -4.570312 1.894531 h -54.859376 c -2.523437 0 -4.570312 -0.847656 -4.570312 -1.894531 v -14.210938 c 0 -1.046875 2.046875 -1.894531 4.570312 -1.894531 z m 0 0" fill="url(#d)"/>
    <path d="m 36.570312 70 h 54.859376 c 2.523437 0 4.570312 0.765625 4.570312 1.714844 v 14.570312 c 0 0.949219 -2.046875 1.714844 -4.570312 1.714844 h -54.859376 c -2.523437 0 -4.570312 -0.765625 -4.570312 -1.714844 v -14.570312 c 0 -0.949219 2.046875 -1.714844 4.570312 -1.714844 z m 0 0" fill="#77767b"/>
    <path d="m 48 92 c 0 1.105469 -0.894531 2 -2 2 s -2 -0.894531 -2 -2 s 0.894531 -2 2 -2 s 2 0.894531 2 2 z m 0 0" fill="#57e389"/>
    <path d="m 90 92 c 0 0.550781 -0.449219 1 -1 1 s -1 -0.449219 -1 -1 s 0.449219 -1 1 -1 s 1 0.449219 1 1 z m 0 0" fill="#3d3846"/>
    <path d="m 40 92 c 0 0.550781 -0.449219 1 -1 1 s -1 -0.449219 -1 -1 s 0.449219 -1 1 -1 s 1 0.449219 1 1 z m 0 0" fill="#3d3846"/>
    <path d="m 36.570312 66 h 54.859376 c 2.523437 0 4.570312 0.847656 4.570312 1.894531 v 14.210938 c 0 1.046875 -2.046875 1.894531 -4.570312 1.894531 h -54.859376 c -2.523437 0 -4.570312 -0.847656 -4.570312 -1.894531 v -14.210938 c 0 -1.046875 2.046875 -1.894531 4.570312 -1.894531 z m 0 0" fill="url(#e)"/>
    <path d="m 36.570312 58 h 54.859376 c 2.523437 0 4.570312 0.765625 4.570312 1.714844 v 14.570312 c 0 0.949219 -2.046875 1.714844 -4.570312 1.714844 h -54.859376 c -2.523437 0 -4.570312 -0.765625 -4.570312 -1.714844 v -14.570312 c 0 -0.949219 2.046875 -1.714844 4.570312 -1.714844 z m 0 0" fill="#77767b"/>
    <path d="m 48 80 c 0 1.105469 -0.894531 2 -2 2 s -2 -0.894531 -2 -2 s 0.894531 -2 2 -2 s 2 0.894531 2 2 z m 0 0" fill="#57e389"/>
    <path d="m 90 80 c 0 0.550781 -0.449219 1 -1 1 s -1 -0.449219 -1 -1 s 0.449219 -1 1 -1 s 1 0.449219 1 1 z m 0 0" fill="#3d3846"/>
    <path d="m 40 80 c 0 0.550781 -0.449219 1 -1 1 s -1 -0.449219 -1 -1 s 0.449219 -1 1 -1 s 1 0.449219 1 1 z m 0 0" fill="#3d3846"/>
    <path d="m 36.570312 54 h 54.859376 c 2.523437 0 4.570312 0.847656 4.570312 1.894531 v 14.210938 c 0 1.046875 -2.046875 1.894531 -4.570312 1.894531 h -54.859376 c -2.523437 0 -4.570312 -0.847656 -4.570312 -1.894531 v -14.210938 c 0 -1.046875 2.046875 -1.894531 4.570312 -1.894531 z m 0 0" fill="url(#f)"/>
    <path d="m 36.570312 46 h 54.859376 c 2.523437 0 4.570312 0.765625 4.570312 1.714844 v 14.570312 c 0 0.949219 -2.046875 1.714844 -4.570312 1.714844 h -54.859376 c -2.523437 0 -4.570312 -0.765625 -4.570312 -1.714844 v -14.570312 c 0 -0.949219 2.046875 -1.714844 4.570312 -1.714844 z m 0 0" fill="#77767b"/>
    <path d="m 48 68 c 0 1.105469 -0.894531 2 -2 2 s -2 -0.894531 -2 -2 s 0.894531 -2 2 -2 s 2 0.894531 2 2 z m 0 0" fill="#57e389"/>
    <path d="m 90 68 c 0 0.550781 -0.449219 1 -1 1 s -1 -0.449219 -1 -1 s 0.449219 -1 1 -1 s 1 0.449219 1 1 z m 0 0" fill="#3d3846"/>
    <path d="m 40 68 c 0 0.550781 -0.449219 1 -1 1 s -1 -0.449219 -1 -1 s 0.449219 -1 1 -1 s 1 0.449219 1 1 z m 0 0" fill="#3d3846"/>
    <path d="m 64 9 c -26.691406 0 -49.527344 18.816406 -54.164062 44.625 l 1.148437 0.199219 c 3.167969 -4.898438 8.410156 -7.824219 14.015625 -7.824219 c 7.597656 0.003906 14.269531 5.339844 16.347656 13.078125 l 2.304688 0.398437 c 3.367187 -4.515624 11.410156 -7.46875 20.347656 -7.476562 c 8.945312 0 17 2.953125 20.375 7.472656 l 2.300781 -0.398437 c 2.078125 -7.726563 8.738281 -13.0625 16.324219 -13.074219 c 5.605469 0 10.847656 2.925781 14.019531 7.824219 l 1.144531 -0.199219 c -4.636718 -25.808594 -27.472656 -44.625 -54.164062 -44.625 z m 0 0" fill="none" stroke="#a51d2d" stroke-linecap="round" stroke-linejoin="round" stroke-width="2"/>
    <path d="m 64 9 c -26.691406 0 -49.527344 18.816406 -54.164062 44.625 l 1.148437 0.199219 c 3.167969 -4.898438 8.410156 -7.824219 14.015625 -7.824219 c 7.597656 0.003906 14.269531 5.339844 16.347656 13.078125 l 2.304688 0.398437 c 3.367187 -4.515624 11.410156 -7.46875 20.347656 -7.476562 c 8.945312 0 17 2.953125 20.375 7.472656 l 2.300781 -0.398437 c 2.078125 -7.726563 8.738281 -13.0625 16.324219 -13.074219 c 5.605469 0 10.847656 2.925781 14.019531 7.824219 l 1.144531 -0.199219 c -4.636718 -25.808594 -27.472656 -44.625 -54.164062 -44.625 z m 0 0" fill="#e01b24"/>
    <path d="m 64 9 c -5.332031 5 -10.667969 10 -14.167969 18.332031 c -3.5 8.335938 -5.164062 20 -6.832031 31.667969" fill="none" stroke="#a51d2d" stroke-linecap="round" stroke-linejoin="round"/>
    <path d="m 64 9 c 5.410156 5.019531 10.816406 10.035156 14.3125 18.339844 c 3.496094 8.304687 5.09375 19.980468 6.6875 31.660156" fill="none" stroke="#a51d2d" stroke-linecap="round" stroke-linejoin="round"/>
    <g mask="url(#i)">
        <g clip-path="url(#m)">
            <g mask="url(#j)">
                <g clip-path="url(#l)">
                    <path d="m 128 80.640625 v 47.359375 h -128 v -47.359375 z m 0 0" fill="url(#k)"/>
                    <path d="m 13.308594 80.640625 l 47.355468 47.359375 h 21.214844 l -47.359375 -47.359375 z m 42.421875 0 l 47.363281 47.359375 h 21.214844 l -47.363282 -47.359375 z m 42.429687 0 l 29.839844 29.839844 v -21.210938 l -8.628906 -8.628906 z m -98.160156 7.90625 v 21.214844 l 18.238281 18.238281 h 21.214844 z m 0 0"/>
                </g>
            </g>
        </g>
    </g>
</svg>
