<?xml version="1.0" encoding="UTF-8"?>
<svg height="16px" viewBox="0 0 16 16" width="16px" xmlns="http://www.w3.org/2000/svg">
    <g fill="#241f31">
        <path d="m 8 0 c -4.417969 0 -8 3.582031 -8 8 h 2 c 0 -3.3125 2.6875 -6 6 -6 s 6 2.6875 6 6 h 2 c 0 -4.417969 -3.582031 -8 -8 -8 z m 0 0"/>
        <path d="m 3.832031 6 h 8.335938 c 0.457031 0 0.832031 0.449219 0.832031 1 s -0.375 1 -0.832031 1 h -8.335938 c -0.457031 0 -0.832031 -0.449219 -0.832031 -1 s 0.375 -1 0.832031 -1 z m 0 0"/>
        <path d="m 3.832031 10 h 8.335938 c 0.457031 0 0.832031 0.449219 0.832031 1 s -0.375 1 -0.832031 1 h -8.335938 c -0.457031 0 -0.832031 -0.449219 -0.832031 -1 s 0.375 -1 0.832031 -1 z m 0 0"/>
        <path d="m 3.832031 14 h 8.335938 c 0.457031 0 0.832031 0.449219 0.832031 1 s -0.375 1 -0.832031 1 h -8.335938 c -0.457031 0 -0.832031 -0.449219 -0.832031 -1 s 0.375 -1 0.832031 -1 z m 0 0"/>
    </g>
</svg>
